<?xml version="1.0" encoding="utf-8"?>
<!-- Generator: Adobe Illustrator 25.4.1, SVG Export Plug-In . SVG Version: 6.00 Build 0)  -->
<svg version="1.1" id="圖層_1" xmlns="http://www.w3.org/2000/svg" xmlns:xlink="http://www.w3.org/1999/xlink" x="0px" y="0px"
	 viewBox="0 0 40 35.3" style="enable-background:new 0 0 40 35.3;" xml:space="preserve">
<style type="text/css">
	.st0{fill:#FFFFFF;}
</style>
<g>
	<path class="st0" d="M29.7,3.1L14.4,9.2h-8c-2.7,0-5,2.2-5,5v6.6c0,2.3,1.6,4.3,3.8,4.8l3.4,8.5h6.1v-8.2l14.9,6v0.5v1.7H38V0.9
		h-8.3V3.1z M4.8,14.2c0-0.9,0.7-1.7,1.7-1.7h6.6v1.7H6.4v3.3h6.6v5H6.4c-0.9,0-1.7-0.7-1.7-1.7V14.2z M10.9,30.8l-2-5h2.5v5H10.9z
		 M34.7,30.8H33v-1.1V14.2h-3.3v14.1L16.4,23V12l13.3-5.3v4.2H33V5.3V4.2h1.7V30.8z"/>
</g>
</svg>
